<svg viewBox="0 0 100 100" width="100" height="100" xmlns="http://www.w3.org/2000/svg"><title>UBC Club MECH</title><rect x="0" y="0" width="100" height="100" rx="20" ry="20" fill="#151943"/><g id="logo" transform="translate(10, 9.999563079090358) scale(0.10961947661326654)"><g id="Layer 1" transform="translate(-246.8,-424.5)" style="display:inline;fill:#ffffff;fill-opacity:1;stroke:none">
    <path id="path1" d="m 292.1,741.1 q 0,48.3 0,96.6 -6.4,0 -12.8,0 c 0,-21.7 0,-43.5 0,-65.2 -1.7,21.7 -3.5,43.5 -5.1,65.2 q -4.6,0 -9.1,0 c -1.8,-21.2 -3.7,-42.5 -5.5,-63.7 q 0,31.8 0,63.7 -6.4,0 -12.8,0 0,-48.3 0,-96.6 9.5,0 19,0 c 0.5,5.8 1.1,12.6 1.7,20.6 0.7,8.2 1.5,16.3 2.1,24.5 1.1,-15 2.3,-30 3.4,-45.1 q 9.6,0 19.1,0 z" style="fill:#ffffff;fill-opacity:1;stroke:none"/>
    <path id="path3" d="m 298,741.1 q 12.3,0 24.6,0 0,9.7 0,19.3 -5,0 -9.9,0 c 0,6.2 0,12.3 0,18.4 3.1,0 6.2,0 9.2,0 q 0,9.1 0,18.3 c -3,0 -6.1,0 -9.2,0 0,7.1 0,14.2 0,21.3 q 5.4,0 10.8,0 0,9.6 0,19.3 -12.7,0 -25.5,0 0,-48.3 0,-96.6 z" style="fill:#ffffff;fill-opacity:1;stroke:none"/>
    <path id="path4" d="m 362.1,783.2 q -7.4,0 -14.7,0 0,-8.4 0,-16.8 c 0,-4.9 -0.2,-7.9 -0.5,-9.2 q -0.4,-1.7 -2.1,-1.8 c -1.2,0 -2,0.8 -2.3,2.2 -0.3,1.5 -0.5,4.7 -0.5,9.6 q 0,22.4 0,44.8 0,7.1 0.5,9.2 c 0.3,1.5 1.1,2.2 2.2,2.2 1.1,0 1.8,-0.7 2.2,-2.2 0.3,-1.4 0.5,-4.7 0.5,-10 q 0,-6.1 0,-12.2 7.3,0 14.7,0 0,1.9 0,3.8 c 0,10 -0.4,17.1 -1.2,21.3 -0.9,4.1 -2.7,7.7 -5.5,10.9 -2.8,3.2 -6.3,4.7 -10.5,4.7 -4.3,0 -7.9,-1.2 -10.6,-4 -2.8,-2.7 -4.7,-6.4 -5.6,-11.1 -0.9,-4.7 -1.4,-11.7 -1.4,-21.2 q 0,-14.1 0,-28.2 c 0,-7 0.2,-12.2 0.4,-15.7 0.3,-3.4 1.2,-6.8 2.6,-10 1.3,-3.3 3.3,-5.8 5.7,-7.7 2.5,-1.8 5.3,-2.7 8.5,-2.7 4.3,0 7.9,1.4 10.7,4.3 2.8,2.9 4.7,6.4 5.6,10.7 0.8,4.3 1.3,10.9 1.3,20 q 0,4.5 0,9.1 z" style="fill:#ffffff;fill-opacity:1;stroke:none"/>
    <path id="path5" d="m 401.1,741.1 q 0,48.3 0,96.6 -7.3,0 -14.6,0 0,-20.3 0,-40.6 -2.3,0 -4.4,0 0,20.3 0,40.6 c -4.9,0 -9.9,0 -14.8,0 q 0,-48.3 0,-96.6 c 4.9,0 9.9,0 14.8,0 q 0,17.3 0,34.6 2.1,0 4.4,0 0,-17.3 0,-34.6 7.3,0 14.6,0 z" style="fill:#ffffff;fill-opacity:1;stroke:none"/>
    <path id="path2" fill-rule="evenodd" d="m 432.4,741.1 c 2.8,32.2 5.7,64.4 8.5,96.6 q -7.6,0 -15.1,0 c -0.2,-5.8 -0.5,-11.6 -0.7,-17.4 -1.8,0 -3.5,0 -5.3,0 -0.3,5.8 -0.6,11.6 -0.9,17.4 -5.1,0 -10.1,0 -15.2,0 2.5,-32.2 5,-64.4 7.5,-96.6 q 10.6,0 21.2,0 z m -7.7,62.1 c -0.8,-10.9 -1.6,-24.4 -2.3,-40.5 -1.5,18.5 -2.4,32 -2.8,40.5 q 2.5,0 5.1,0 z" style="fill:#ffffff;fill-opacity:1;stroke:none"/>
    <path id="path6" d="m 476.2,741.1 q 0,48.3 0,96.6 -6.5,0 -12.9,0 c -2.5,-14.7 -5.1,-29.3 -7.6,-43.9 q 0,22 0,43.9 c -4.2,0 -8.2,0 -12.3,0 q 0,-48.3 0,-96.6 c 4.1,0 8.1,0 12.3,0 2.7,14.5 5.5,29 8.2,43.5 q 0,-21.7 0,-43.5 6.2,0 12.3,0 z" style="fill:#ffffff;fill-opacity:1;stroke:none"/>
    <path id="path7" d="m 496.8,741.1 q 0,48.3 0,96.6 c -4.9,0 -9.8,0 -14.7,0 q 0,-48.3 0,-96.6 c 4.9,0 9.8,0 14.7,0 z" style="fill:#ffffff;fill-opacity:1;stroke:none"/>
    <path id="path8" d="m 537,783.2 q -7.3,0 -14.7,0 0,-8.4 0,-16.8 c 0,-4.9 -0.1,-7.9 -0.4,-9.2 q -0.5,-1.7 -2.1,-1.8 c -1.3,0 -2,0.8 -2.3,2.2 -0.4,1.5 -0.5,4.7 -0.5,9.6 q 0,22.4 0,44.8 0,7.1 0.5,9.2 c 0.3,1.5 1,2.2 2.2,2.2 1,0 1.8,-0.7 2.1,-2.2 q 0.5,-2.1 0.5,-10 0,-6.1 0,-12.2 7.4,0 14.7,0 0,1.9 0,3.8 c 0,10 -0.4,17.1 -1.2,21.3 -0.8,4.1 -2.7,7.7 -5.5,10.9 -2.8,3.2 -6.3,4.7 -10.5,4.7 -4.2,0 -7.8,-1.2 -10.6,-4 -2.8,-2.7 -4.7,-6.4 -5.6,-11.1 -0.9,-4.7 -1.3,-11.7 -1.3,-21.2 q 0,-14.1 0,-28.2 c 0,-7 0.1,-12.2 0.4,-15.7 0.3,-3.4 1.1,-6.8 2.5,-10 1.4,-3.3 3.3,-5.8 5.7,-7.7 2.5,-1.8 5.3,-2.7 8.5,-2.7 4.3,0 7.9,1.4 10.7,4.3 2.8,2.9 4.7,6.4 5.6,10.7 0.8,4.3 1.3,10.9 1.3,20 q 0,4.5 0,9.1 z" style="fill:#ffffff;fill-opacity:1;stroke:none"/>
    <path id="path9" fill-rule="evenodd" d="m 567.7,741.1 c 2.7,32.2 5.6,64.4 8.4,96.6 q -7.5,0 -15,0 c -0.3,-5.8 -0.6,-11.6 -0.8,-17.4 -1.8,0 -3.5,0 -5.3,0 -0.3,5.8 -0.6,11.6 -0.9,17.4 q -7.6,0 -15.2,0 c 2.5,-32.2 5.1,-64.4 7.5,-96.6 q 10.6,0 21.3,0 z m -7.8,62.1 c -0.7,-10.9 -1.5,-24.4 -2.3,-40.5 -1.4,18.5 -2.4,32 -2.8,40.5 q 2.5,0 5.1,0 z" style="fill:#ffffff;fill-opacity:1;stroke:none"/>
    <path id="path10" d="m 593.3,741.1 q 0,38.7 0,77.3 4.5,0 8.9,0 0,9.6 0,19.3 -11.8,0 -23.6,0 0,-48.3 0,-96.6 7.3,0 14.7,0 z" style="fill:#ffffff;fill-opacity:1;stroke:none"/>
    <path id="path11" d="m 618.4,741.1 q 12.3,0 24.5,0 0,9.7 0,19.3 -4.9,0 -9.8,0 c 0,6.2 0,12.3 0,18.4 q 4.6,0 9.2,0 0,9.1 0,18.3 -4.6,0 -9.2,0 c 0,7.1 0,14.2 0,21.3 q 5.4,0 10.8,0 0,9.6 0,19.3 -12.7,0 -25.5,0 0,-48.3 0,-96.6 z" style="fill:#ffffff;fill-opacity:1;stroke:none"/>
    <path id="path12" d="m 680.9,741.1 q 0,48.3 0,96.6 -6.4,0 -12.8,0 c -2.5,-14.7 -5.2,-29.3 -7.7,-43.9 q 0,22 0,43.9 -6.1,0 -12.3,0 0,-48.3 0,-96.6 6.2,0 12.3,0 c 2.7,14.5 5.5,29 8.2,43.5 q 0,-21.7 0,-43.5 6.2,0 12.3,0 z" style="fill:#ffffff;fill-opacity:1;stroke:none"/>
    <path id="path13" d="m 720.6,776.7 c -4.9,0 -9.9,0 -14.7,0 0,-2.9 0,-5.9 0,-8.8 q -0.1,-8.3 -0.4,-10.4 c -0.3,-1.3 -1,-2.1 -2.1,-2.1 q -1.3,0.1 -1.8,1.8 c -0.3,1.2 -0.5,4.3 -0.5,9.2 q 0,23.2 0,46.4 c 0,4.3 0.2,7.1 0.5,8.5 q 0.5,2.1 1.9,2.1 c 1.1,0 1.9,-0.8 2.2,-2.3 0.4,-1.6 0.6,-4.6 0.6,-9.1 q 0,-5.7 0,-11.5 c -1,0 -2,0 -3,0 q 0,-7.3 0,-14.6 c 5.8,0 11.5,0 17.3,0 q 0,25.9 0,51.8 -4.7,0 -9.3,0 -0.7,-3.5 -1.3,-6.9 c -1.1,3 -2.3,5.2 -3.8,6.6 -1.5,1.6 -3.4,2.3 -5.4,2.3 -2.5,0 -4.8,-1 -6.9,-3.1 -2.2,-2 -3.9,-4.5 -5,-7.5 -1.1,-3.1 -1.8,-6.2 -2.1,-9.6 -0.2,-3.3 -0.4,-8.3 -0.4,-14.9 q 0,-14.3 0,-28.7 c 0,-9.3 0.3,-15.9 0.9,-20.1 0.6,-4.2 2.3,-8 5,-11.5 2.8,-3.5 6.4,-5.2 10.7,-5.2 4.3,0 7.9,1.5 10.7,4.5 2.8,3.1 4.7,6.7 5.6,10.8 q 1.3,6.2 1.3,18.1 0,2.1 0,4.2 z" style="fill:#ffffff;fill-opacity:1;stroke:none"/>
    <path id="path14" d="m 741,741.1 q 0,48.3 0,96.6 -7.4,0 -14.7,0 0,-48.3 0,-96.6 7.3,0 14.7,0 z" style="fill:#ffffff;fill-opacity:1;stroke:none"/>
    <path id="path15" d="m 779.7,741.1 q 0,48.3 0,96.6 -6.5,0 -12.9,0 c -2.5,-14.7 -5.1,-29.3 -7.7,-43.9 q 0,22 0,43.9 -6.1,0 -12.2,0 0,-48.3 0,-96.6 6.1,0 12.2,0 c 2.7,14.5 5.6,29 8.3,43.5 q 0,-21.7 0,-43.5 6.1,0 12.3,0 z" style="fill:#ffffff;fill-opacity:1;stroke:none"/>
    <path id="path16" d="m 785.6,741.1 q 12.2,0 24.5,0 0,9.7 0,19.3 -5,0 -9.8,0 c 0,6.2 0,12.3 0,18.4 q 4.6,0 9.2,0 0,9.1 0,18.3 -4.6,0 -9.2,0 c 0,7.1 0,14.2 0,21.3 q 5.4,0 10.8,0 0,9.6 0,19.3 -12.8,0 -25.5,0 0,-48.3 0,-96.6 z" style="fill:#ffffff;fill-opacity:1;stroke:none"/>
    <path id="path17" d="m 815.3,741.1 q 12.2,0 24.5,0 0,9.7 0,19.3 -4.9,0 -9.8,0 c 0,6.2 0,12.3 0,18.4 q 4.6,0 9.2,0 0,9.1 0,18.3 -4.6,0 -9.2,0 c 0,7.1 0,14.2 0,21.3 q 5.4,0 10.8,0 0,9.6 0,19.3 -12.8,0 -25.5,0 0,-48.3 0,-96.6 z" style="fill:#ffffff;fill-opacity:1;stroke:none"/>
    <path id="path18" fill-rule="evenodd" d="m 845,741.1 q 5.2,0 10.4,0 c 6.9,0 11.6,0.5 14.1,1.4 2.5,0.9 4.5,3.2 6,7 1.5,3.7 2.3,9.8 2.3,18 0,7.5 -0.6,12.6 -1.6,15.2 -1.1,2.5 -3.3,4.1 -6.5,4.6 2.9,1.3 4.9,2.8 5.9,4.9 1,2.2 1.6,4 1.9,5.7 0.2,1.7 0.3,6.5 0.3,14.3 q 0,12.8 0,25.5 -6.8,0 -13.6,0 0,-16 0,-32.1 c 0,-5.2 -0.3,-8.3 -0.7,-9.6 q -0.7,-1.9 -3.8,-1.9 0,21.8 0,43.6 -7.4,0 -14.7,0 0,-48.3 0,-96.6 z m 14.7,16.5 q 0,10.8 0,21.5 c 1.6,0 2.8,-0.4 3.5,-1.2 q 1,-1.2 1,-7.5 0,-2.6 0,-5.3 0,-4.6 -1,-6 c -0.6,-1 -1.8,-1.5 -3.5,-1.5 z" style="fill:#ffffff;fill-opacity:1;stroke:none"/>
    <path id="path19" d="m 898.2,741.1 q 0,48.3 0,96.6 -7.3,0 -14.7,0 0,-48.3 0,-96.6 7.4,0 14.7,0 z" style="fill:#ffffff;fill-opacity:1;stroke:none"/>
    <path id="path20" d="m 936.9,741.1 q 0,48.3 0,96.6 c -4.2,0 -8.6,0 -12.9,0 -2.5,-14.7 -5.1,-29.3 -7.6,-43.9 q 0,22 0,43.9 -6.1,0 -12.3,0 0,-48.3 0,-96.6 6.2,0 12.3,0 c 2.7,14.5 5.6,29 8.2,43.5 q 0,-21.7 0,-43.5 6.2,0 12.3,0 z" style="fill:#ffffff;fill-opacity:1;stroke:none"/>
    <path id="path21" d="m 976.6,776.7 q -7.4,0 -14.8,0 c 0,-2.9 0,-5.9 0,-8.8 q 0,-8.3 -0.3,-10.4 c -0.3,-1.3 -1,-2.1 -2.1,-2.1 q -1.3,0.1 -1.8,1.8 c -0.3,1.2 -0.5,4.3 -0.5,9.2 q 0,23.2 0,46.4 c 0,4.3 0.2,7.1 0.5,8.5 q 0.5,2.1 1.9,2.1 c 1.1,0 1.9,-0.8 2.2,-2.3 0.4,-1.6 0.6,-4.6 0.6,-9.1 q 0,-5.7 0,-11.5 -1.5,0 -2.9,0 0,-7.3 0,-14.6 8.5,0 17.2,0 0,25.9 0,51.8 -4.7,0 -9.3,0 c -0.4,-2.3 -0.9,-4.6 -1.3,-6.9 -1.1,3 -2.4,5.2 -3.8,6.6 -1.5,1.6 -3.4,2.3 -5.4,2.3 -2.5,0 -4.9,-1 -6.9,-3.1 -2.2,-2 -3.9,-4.5 -5,-7.5 -1.1,-3.1 -1.8,-6.2 -2.1,-9.6 -0.2,-3.3 -0.4,-8.3 -0.4,-14.9 q 0,-14.3 0,-28.7 c 0,-9.3 0.3,-15.9 0.9,-20.1 0.6,-4.2 2.3,-8 5,-11.5 2.7,-3.5 6.3,-5.2 10.7,-5.2 4.3,0 7.9,1.5 10.7,4.5 2.8,3.1 4.7,6.7 5.6,10.8 0.8,4.1 1.3,10.2 1.3,18.1 q 0,2.1 0,4.2 z" style="fill:#ffffff;fill-opacity:1;stroke:none"/>
    <path id="path46" d="m 588.7,679.9 c 0,8.6 0,17.3 0,26 q 0,4.4 -0.5,6.2 c -0.2,1.2 -1.1,2.4 -2.4,3.6 -1.4,1.3 -3.2,2.2 -5.4,2.9 q -3.4,1 -8,1 -5.1,0 -9,-1.2 c -2.6,-0.8 -4.5,-1.7 -5.8,-3 q -1.9,-1.8 -2.3,-3.9 -0.3,-2 -0.3,-8.6 0,-11.5 0,-23 7.4,0 14.7,0 c 0,9.7 0,19.4 0,29.1 q 0,2.6 0.4,3.3 c 0.3,0.5 0.8,0.7 1.7,0.7 q 1.4,0 1.8,-0.8 0.3,-0.8 0.3,-3.7 0,-14.3 0,-28.6 7.4,0 14.8,0 z" style="fill:#ffffff;fill-opacity:1;stroke:none"/>
    <path id="path47" fill-rule="evenodd" d="m 594.4,679.9 q 7.3,0 14.6,0 c 4.7,0 8.2,0.2 10.6,0.8 2.4,0.5 4.3,1.4 5.8,3 q 2.2,2.2 2.2,7.3 c 0,2.3 -0.6,3.8 -1.6,4.7 -1,0.9 -3.1,1.6 -6.1,2.1 3.4,0.5 5.7,1.4 6.9,2.6 q 1.8,1.9 1.8,5.7 c 0,1.1 0,2.4 0,3.5 q 0,3.9 -1.3,5.9 -1.3,1.9 -4.2,2.6 -2.8,0.7 -11.7,0.7 c -5.7,0 -11.4,0 -17,0 0,-13 0,-25.9 0,-38.9 z m 14.7,6.7 q 0,4.3 0,8.6 0.9,0 1.5,0 c 1.4,0 2.3,-0.3 2.7,-0.8 q 0.6,-0.7 0.6,-4.2 c 0,-1.2 -0.2,-2 -0.5,-2.5 -0.3,-0.5 -0.7,-0.8 -1.3,-0.9 -0.5,-0.2 -1.5,-0.2 -3,-0.2 z m 0,14.7 q 0,5.4 0,10.8 3.1,-0.1 4,-0.6 0.8,-0.7 0.8,-3 0,-1.8 0,-3.6 0,-2.5 -0.8,-3.1 c -0.5,-0.3 -1.8,-0.5 -4,-0.5 z" style="fill:#ffffff;fill-opacity:1;stroke:none;stroke-opacity:1"/>
    <path id="path48" d="m 668.3,696.8 c -4.9,0 -9.9,0 -14.8,0 0,-2.2 0,-4.5 0,-6.7 0,-2 -0.1,-3.2 -0.4,-3.7 -0.3,-0.5 -1,-0.7 -2.1,-0.7 -1.2,0 -2,0.3 -2.3,0.9 -0.3,0.5 -0.5,1.8 -0.5,3.8 q 0,9 0,18.1 0,2.8 0.5,3.6 0.5,0.9 2.2,0.9 c 1.1,0 1.8,-0.3 2.1,-0.9 0.4,-0.5 0.5,-1.9 0.5,-4 q 0,-2.5 0,-4.9 c 4.9,0 9.9,0 14.8,0 q 0,0.8 0,1.5 c 0,4 -0.5,6.9 -1.3,8.5 -0.8,1.7 -2.6,3.2 -5.5,4.5 -2.8,1.3 -6.3,1.9 -10.4,1.9 -4.3,0 -7.9,-0.5 -10.7,-1.6 -2.8,-1.1 -4.7,-2.6 -5.5,-4.5 -0.9,-1.9 -1.4,-4.7 -1.4,-8.5 q 0,-5.7 0,-11.4 c 0,-2.8 0.1,-4.9 0.4,-6.3 0.3,-1.4 1.1,-2.7 2.5,-4 1.4,-1.3 3.3,-2.3 5.8,-3.1 2.4,-0.8 5.3,-1.1 8.4,-1.1 4.4,0 7.9,0.6 10.8,1.7 2.8,1.2 4.7,2.6 5.5,4.3 0.9,1.8 1.4,4.4 1.4,8.1 q 0,1.8 0,3.6 z" style="fill:#ffffff;fill-opacity:1;stroke:none"/>
    <path id="path54" d="m 506.1,865.2 q 11.4,0 22.8,0 0,3.9 0,7.8 c -3,0 -6.1,0 -9.1,0 0,2.4 0,4.9 0,7.4 q 4.2,0 8.5,0 c 0,2.4 0,4.9 0,7.3 q -4.3,0 -8.5,0 0,4.3 0,8.6 5,0 10,0 0,3.9 0,7.7 c -7.9,0 -15.8,0 -23.7,0 q 0,-19.3 0,-38.8 z" style="fill:#ffffff;fill-opacity:1;stroke:none"/>
    <path id="path55" d="m 562.7,877 c -4.2,0 -8.5,0 -12.7,0 0,-1 0,-1.9 0,-2.9 0,-1.4 -0.2,-2.2 -0.5,-2.6 q -0.5,-0.5 -1.6,-0.5 -1.2,0 -1.9,0.7 c -0.4,0.5 -0.6,1.3 -0.6,2.3 0,1.3 0.2,2.3 0.6,2.9 0.5,0.7 1.8,1.4 3.9,2.4 6.1,2.7 10,4.8 11.6,6.5 1.5,1.8 2.3,4.5 2.3,8.3 0,2.8 -0.4,4.8 -1.3,6.1 -0.8,1.4 -2.6,2.4 -5.1,3.3 -2.5,0.9 -5.4,1.4 -8.7,1.4 q -5.5,0 -9.4,-1.6 c -2.6,-1 -4.3,-2.3 -5.1,-3.9 -0.8,-1.6 -1.2,-3.8 -1.2,-6.7 0,-0.9 0,-1.7 0,-2.5 4.2,0 8.5,0 12.7,0 q 0,2.3 0,4.7 c 0,1.4 0.2,2.3 0.6,2.8 q 0.5,0.6 1.8,0.6 1.4,0 2.1,-0.8 c 0.4,-0.5 0.6,-1.3 0.6,-2.3 q 0,-3.5 -1.2,-4.5 c -0.9,-0.7 -3,-1.9 -6.4,-3.6 -3.4,-1.6 -5.7,-2.8 -6.8,-3.6 -1.1,-0.7 -2,-1.8 -2.7,-3.1 q -1.1,-2 -1.1,-5.1 c 0,-3 0.5,-5.1 1.5,-6.5 1,-1.4 2.7,-2.4 5,-3.2 2.3,-0.8 5.1,-1.2 8.3,-1.2 3.6,0 6.6,0.4 9.1,1.3 2.5,0.8 4.2,1.9 5,3.2 0.8,1.3 1.2,3.4 1.2,6.5 0,0.5 0,1.1 0,1.6 z" style="fill:#ffffff;fill-opacity:1;stroke:none"/>
    <path id="path56" d="m 595.6,865.2 q 0,3.9 0,7.8 -4,0 -8.1,0 0,15.5 0,31 c -4.6,0 -9.1,0 -13.7,0 q 0,-15.5 0,-31 c -2.7,0 -5.3,0 -8,0 q 0,-3.9 0,-7.8 c 9.9,0 19.9,0 29.8,0 z" style="fill:#ffffff;fill-opacity:1;stroke:none"/>
    <path id="path57" d="m 601.6,896.1 q 0,4 0,7.9 -5,0 -9.9,0 0,-3.9 0,-7.9 4.9,0 9.9,0 z" style="fill:#ffffff;fill-opacity:1;stroke:none"/>
    <path id="path58" d="m 625.4,865.2 q 0,19.5 0,38.8 c -4.4,0 -8.8,0 -13.2,0 0,-6.9 0,-13.8 0,-20.8 q 0,-4.5 -0.3,-5.4 -0.3,-0.9 -1.6,-1.4 c -0.8,-0.3 -2.8,-0.4 -5.8,-0.4 q -0.7,0 -1.3,0 0,-2.3 0,-4.5 c 6.3,-1.1 11.2,-3.1 14.4,-6.3 2.6,0 5.2,0 7.8,0 z" style="fill:#ffffff;fill-opacity:1;stroke:none"/>
    <path id="path59" fill-rule="evenodd" d="m 630.4,893.8 q 6.6,0 13.1,0 c 0,1.8 0.1,2.9 0.1,3.3 0.1,0.5 0.4,0.9 0.9,1.3 0.4,0.2 1,0.4 1.8,0.4 q 1.1,0 1.7,-0.4 c 0.4,-0.4 0.7,-0.7 0.8,-1.2 0,-0.5 0,-1.4 0,-2.9 0,-2.1 0,-4.1 0,-6.2 -0.6,1 -1.6,1.8 -2.9,2.3 q -2,0.8 -4.8,0.8 c -2.5,0 -4.5,-0.4 -6.4,-1.4 -1.9,-1 -3,-2.1 -3.5,-3.5 -0.5,-1.3 -0.8,-3.1 -0.8,-5.4 q 0,-1.6 0,-3.1 c 0,-2.7 0.2,-4.7 0.5,-6.1 q 0.4,-2 2.2,-3.7 1.8,-1.7 5.1,-2.6 c 2.1,-0.6 4.6,-0.9 7.4,-0.9 3.6,0 6.4,0.3 8.7,1.1 2.2,0.7 4,1.7 5.2,3.1 1.2,1.3 2,2.7 2.1,4.2 0.2,1.5 0.3,4.4 0.3,8.6 q 0,2.7 0,5.4 c 0,4.7 -0.1,7.8 -0.2,9.3 q -0.3,2.4 -2.3,4.5 c -1.3,1.4 -3.1,2.4 -5.4,3.1 q -3.4,1 -7.9,1 -5.5,0 -9,-1.3 -3.6,-1.3 -5.1,-3.7 c -1,-1.6 -1.6,-3.6 -1.6,-6 z m 13.1,-12.2 c 0,1.6 0.4,2.6 0.9,3 q 0.8,0.6 1.8,0.6 c 0.9,0 1.6,-0.2 2,-0.7 0.4,-0.5 0.6,-1.5 0.6,-2.9 q 0,-3.5 0,-7 c 0,-1.7 -0.2,-2.8 -0.6,-3.3 -0.4,-0.6 -1,-0.8 -2,-0.8 q -0.8,0 -1.7,0.5 c -0.6,0.5 -1,1.5 -1,3.3 q 0,3.7 0,7.3 z" style="fill:#ffffff;fill-opacity:1;stroke:none"/>
    <path id="path60" d="m 691.1,882.1 c 2,0.5 3.5,1.2 4.4,2.4 q 1.5,1.7 1.5,7.9 c 0,3.1 -0.5,5.5 -1.4,7.2 -1,1.7 -2.6,3 -5,3.9 q -3.5,1.3 -9,1.3 c -4.1,0 -7.4,-0.5 -9.7,-1.5 -2.4,-1.1 -4,-2.3 -4.7,-3.8 -0.7,-1.5 -1.2,-4.1 -1.2,-7.8 0,-1 0,-2.1 0,-3.1 4.4,0 8.8,0 13.2,0 0,2.1 0,4.3 0,6.3 0,1.7 0.1,2.8 0.4,3.2 0.3,0.5 0.8,0.7 1.8,0.7 q 1.5,0 2,-0.8 0.5,-0.9 0.5,-4.5 0,-1.4 0,-2.7 c 0,-1.5 -0.3,-2.6 -0.7,-3.3 q -0.7,-1 -2,-1.4 c -0.9,-0.2 -2.6,-0.3 -5.2,-0.3 q 0,-2.8 0,-5.7 c 3.1,0 5,-0.1 5.8,-0.2 0.8,-0.2 1.3,-0.6 1.6,-1.2 q 0.5,-0.9 0.5,-2.8 0,-1 0,-2.1 c 0,-1.4 -0.2,-2.3 -0.6,-2.7 -0.3,-0.5 -1,-0.6 -1.7,-0.6 -1,0 -1.6,0.1 -1.9,0.6 -0.4,0.5 -0.5,1.4 -0.5,3 0,1 0,2.1 0,3.1 -4.4,0 -8.8,0 -13.2,0 0,-1.1 0,-2.2 0,-3.3 0,-3.7 1.2,-6.2 3.5,-7.5 2.3,-1.3 5.9,-2 10.9,-2 q 9.4,0 12.7,2.7 c 2.3,1.9 3.4,4.4 3.4,7.6 0,2.2 -0.4,3.7 -1.2,4.7 -0.8,1 -2.2,1.9 -4.2,2.7 z" style="fill:#ffffff;fill-opacity:1;stroke:none"/>
    <path id="path61" d="m 724.2,865.2 c 0,2.8 0,5.7 0,8.5 -2.8,10.1 -5.7,20.2 -8.4,30.3 q -6.5,0 -13.1,0 c 3.1,-10.6 6.3,-21.2 9.3,-31.8 q -6.4,0 -12.9,0 0,-3.5 0,-7 12.5,0 25.1,0 z" style="fill:#ffffff;fill-opacity:1;stroke:none"/>
  </g><g id="g81" style="display:inline;fill:#ffffff;fill-opacity:1;stroke:none" transform="translate(-247.1,-427.1)">
    <path style="fill:#ffffff;fill-opacity:1;stroke:none;stroke-width:40;stroke-dasharray:none;stroke-opacity:1" d="m 791.68584,643.22501 55.72948,-19.47372 28,48.49742 -44.72948,38.52628 z" id="path74"/>
    <path style="fill:#ffffff;fill-opacity:1;stroke:none;stroke-width:40;stroke-dasharray:none;stroke-opacity:1" d="m 830.68584,873.22501 44.72948,38.52628 -28,48.49742 -55.72948,-19.47372 z" id="path75"/>
    <path style="fill:#ffffff;fill-opacity:1;stroke:none;stroke-width:40;stroke-dasharray:none;stroke-opacity:1" d="m 760.77499,971.68584 19.47372,55.72946 -48.49742,28 -38.52628,-44.7295 z" id="path76"/>
    <path style="fill:#ffffff;fill-opacity:1;stroke:none;stroke-width:40;stroke-dasharray:none;stroke-opacity:1" d="m 651,1022 -11,58 h -56 l -11,-58 z" id="path77"/>
    <path style="fill:#ffffff;fill-opacity:1;stroke:none;stroke-width:40;stroke-dasharray:none;stroke-opacity:1" d="m 530.77499,1010.6858 -38.52628,44.7295 -48.49742,-28 19.47372,-55.72946 z" id="path78"/>
    <path style="fill:#ffffff;fill-opacity:1;stroke:none;stroke-width:40;stroke-dasharray:none;stroke-opacity:1" d="m 432.31416,940.77499 -55.72948,19.47372 -28,-48.49742 44.72948,-38.52628 z" id="path79"/>
    <path style="fill:#ffffff;fill-opacity:1;stroke:none;stroke-width:40;stroke-dasharray:none;stroke-opacity:1" d="m 393.31416,710.77499 -44.72948,-38.52628 28,-48.49742 55.72948,19.47372 z" id="path80"/>
    <path style="fill:#ffffff;fill-opacity:1;stroke:none;stroke-width:40;stroke-dasharray:none;stroke-opacity:1" d="m 463.22501,612.31416 -19.47372,-55.72948 48.49742,-28 38.52628,44.72948 z" id="path81"/>
    <path style="fill:#ffffff;fill-opacity:1;stroke:none;stroke-width:40;stroke-dasharray:none;stroke-opacity:1" d="m 693.22501,573.31416 38.52628,-44.72948 48.49742,28 -19.47372,55.72948 z" id="path73"/>
    <path style="fill:#ffffff;fill-opacity:1;stroke:none;stroke-width:40;stroke-dasharray:none;stroke-opacity:1" d="m 573,562 11,-58 h 56 l 11,58 z" id="path72"/>
  </g><path id="ellipse81" style="baseline-shift:baseline;display:inline;overflow:visible;opacity:1;vector-effect:none;enable-background:accumulate;stop-color:#000000;stop-opacity:1;fill:#ffffff;fill-opacity:1;stroke:none" d="m 364.9,114.9 c -114.1639,0 -210.72016,76.94967 -240.51562,181.69922 h 41.95703 C 194.59865,214.11824 272.68206,155.03281 364.9,155.03281 c 92.21794,0 170.30135,59.08543 198.55859,141.56641 h 41.95703 C 575.62016,191.84967 479.0639,114.9 364.9,114.9 Z M 124.21445,432.59922 C 153.81132,537.65478 250.51825,614.9 364.9,614.9 c 114.38175,0 211.08868,-77.24522 240.68555,-182.30078 H 563.66367 C 535.58021,515.39349 457.34139,574.7672 364.9,574.7672 c -92.44139,0 -170.68021,-59.37371 -198.76367,-142.16798 z"/></g></svg>